<mxfile host="app.diagrams.net" modified="2023-05-18T14:21:45.038Z" agent="Mozilla/5.0 (Windows NT 10.0; Win64; x64) AppleWebKit/537.36 (KHTML, like Gecko) Chrome/113.0.0.0 Safari/537.36" etag="gU1Iy7WZqXNRzktNWQIM" version="21.3.0" type="github">
  <diagram name="Page-1" id="CaVi-aEHdHtz-sd3TJJU">
    <mxGraphModel dx="3566" dy="2177" grid="1" gridSize="10" guides="1" tooltips="1" connect="1" arrows="1" fold="1" page="1" pageScale="1" pageWidth="827" pageHeight="1169" background="none" math="0" shadow="0">
      <root>
        <mxCell id="0" />
        <mxCell id="1" parent="0" />
        <mxCell id="NdfaDMDxE9CkbkElT088-23" value="" style="edgeStyle=orthogonalEdgeStyle;rounded=0;orthogonalLoop=1;jettySize=auto;html=1;strokeColor=#A8201A;fontColor=#143642;fillColor=#FAE5C7;" edge="1" parent="1" source="PqLdQz6lLYGXUWiKdrje-28" target="NdfaDMDxE9CkbkElT088-22">
          <mxGeometry relative="1" as="geometry" />
        </mxCell>
        <mxCell id="PqLdQz6lLYGXUWiKdrje-28" value="filterRecipe sera vide" style="shape=parallelogram;perimeter=parallelogramPerimeter;whiteSpace=wrap;html=1;fixedSize=1;labelBackgroundColor=none;fillColor=#FAE5C7;strokeColor=#0F8B8D;fontColor=#143642;rounded=0;" parent="1" vertex="1">
          <mxGeometry x="-1035" y="-140" width="230" height="80" as="geometry" />
        </mxCell>
        <mxCell id="PqLdQz6lLYGXUWiKdrje-79" value="" style="edgeStyle=orthogonalEdgeStyle;rounded=0;orthogonalLoop=1;jettySize=auto;html=1;labelBackgroundColor=none;strokeColor=#A8201A;fontColor=default;" parent="1" source="PqLdQz6lLYGXUWiKdrje-80" target="PqLdQz6lLYGXUWiKdrje-82" edge="1">
          <mxGeometry relative="1" as="geometry" />
        </mxCell>
        <mxCell id="PqLdQz6lLYGXUWiKdrje-80" value="Début de l&#39;algorithme" style="ellipse;whiteSpace=wrap;html=1;fillColor=#FAE5C7;strokeColor=#0F8B8D;labelBackgroundColor=none;fontColor=#143642;rounded=0;" parent="1" vertex="1">
          <mxGeometry x="-500" y="-1169" width="200" height="90" as="geometry" />
        </mxCell>
        <mxCell id="PqLdQz6lLYGXUWiKdrje-81" style="edgeStyle=orthogonalEdgeStyle;rounded=0;orthogonalLoop=1;jettySize=auto;html=1;entryX=0.5;entryY=0;entryDx=0;entryDy=0;labelBackgroundColor=none;strokeColor=#A8201A;fontColor=default;" parent="1" source="PqLdQz6lLYGXUWiKdrje-82" target="PqLdQz6lLYGXUWiKdrje-84" edge="1">
          <mxGeometry relative="1" as="geometry" />
        </mxCell>
        <mxCell id="PqLdQz6lLYGXUWiKdrje-82" value="Fonction searchAlgo()&lt;br&gt;Récupère la searchBar et&amp;nbsp;&lt;br&gt;add.event sur searchBar" style="rounded=0;whiteSpace=wrap;html=1;labelBackgroundColor=none;fillColor=#FAE5C7;strokeColor=#0F8B8D;fontColor=#143642;" parent="1" vertex="1">
          <mxGeometry x="-500" y="-1049" width="200" height="70" as="geometry" />
        </mxCell>
        <mxCell id="PqLdQz6lLYGXUWiKdrje-83" value="" style="edgeStyle=orthogonalEdgeStyle;rounded=0;orthogonalLoop=1;jettySize=auto;html=1;labelBackgroundColor=none;strokeColor=#A8201A;fontColor=default;" parent="1" source="PqLdQz6lLYGXUWiKdrje-84" target="PqLdQz6lLYGXUWiKdrje-87" edge="1">
          <mxGeometry relative="1" as="geometry" />
        </mxCell>
        <mxCell id="PqLdQz6lLYGXUWiKdrje-84" value="Fonction updateSearch()&amp;nbsp;&lt;br&gt;&lt;div style=&quot;text-align: left;&quot;&gt;&lt;span style=&quot;background-color: initial;&quot;&gt;recupère la searchBar&lt;/span&gt;&lt;/div&gt;&lt;div style=&quot;text-align: left;&quot;&gt;&lt;span style=&quot;background-color: initial;&quot;&gt;recupère les cards&lt;/span&gt;&lt;/div&gt;&lt;div style=&quot;text-align: left;&quot;&gt;&lt;span style=&quot;background-color: initial;&quot;&gt;appel de la fonction filterElement avec 3 params:&lt;/span&gt;&lt;/div&gt;&lt;div style=&quot;text-align: left;&quot;&gt;&lt;span style=&quot;background-color: initial;&quot;&gt;&amp;nbsp;( searchBar.value,&amp;nbsp;&lt;/span&gt;&lt;span style=&quot;background-color: initial;&quot;&gt;cards,&lt;/span&gt;&lt;span style=&quot;background-color: initial;&quot;&gt;&amp;nbsp;window.search( les tags))&lt;/span&gt;&lt;/div&gt;" style="rounded=0;whiteSpace=wrap;html=1;labelBackgroundColor=none;fillColor=#FAE5C7;strokeColor=#0F8B8D;fontColor=#143642;" parent="1" vertex="1">
          <mxGeometry x="-620" y="-950" width="440" height="120" as="geometry" />
        </mxCell>
        <mxCell id="PqLdQz6lLYGXUWiKdrje-85" style="edgeStyle=orthogonalEdgeStyle;rounded=0;orthogonalLoop=1;jettySize=auto;html=1;entryX=0.5;entryY=0;entryDx=0;entryDy=0;labelBackgroundColor=none;strokeColor=#A8201A;fontColor=default;" parent="1" source="PqLdQz6lLYGXUWiKdrje-87" target="PqLdQz6lLYGXUWiKdrje-90" edge="1">
          <mxGeometry relative="1" as="geometry" />
        </mxCell>
        <mxCell id="PqLdQz6lLYGXUWiKdrje-86" style="edgeStyle=orthogonalEdgeStyle;rounded=0;orthogonalLoop=1;jettySize=auto;html=1;entryX=0.5;entryY=0;entryDx=0;entryDy=0;labelBackgroundColor=none;strokeColor=#A8201A;fontColor=default;" parent="1" source="PqLdQz6lLYGXUWiKdrje-87" target="PqLdQz6lLYGXUWiKdrje-114" edge="1">
          <mxGeometry relative="1" as="geometry" />
        </mxCell>
        <mxCell id="PqLdQz6lLYGXUWiKdrje-87" value="Fonction filterElement()&lt;br&gt;récupère les ( searchBar.value,&amp;nbsp;les cards,&amp;nbsp;les tags)&lt;br&gt;défini un tableau vide pour stocker les recettes filtrées : filterRecipes[]&lt;br&gt;défini isMatched" style="rounded=0;whiteSpace=wrap;html=1;labelBackgroundColor=none;fillColor=#FAE5C7;strokeColor=#0F8B8D;fontColor=#143642;" parent="1" vertex="1">
          <mxGeometry x="-620" y="-800" width="440" height="120" as="geometry" />
        </mxCell>
        <mxCell id="PqLdQz6lLYGXUWiKdrje-88" value="" style="edgeStyle=orthogonalEdgeStyle;rounded=0;orthogonalLoop=1;jettySize=auto;html=1;labelBackgroundColor=none;strokeColor=#A8201A;fontColor=default;" parent="1" source="PqLdQz6lLYGXUWiKdrje-90" target="PqLdQz6lLYGXUWiKdrje-92" edge="1">
          <mxGeometry relative="1" as="geometry" />
        </mxCell>
        <mxCell id="NdfaDMDxE9CkbkElT088-17" style="edgeStyle=orthogonalEdgeStyle;rounded=0;orthogonalLoop=1;jettySize=auto;html=1;strokeColor=#A8201A;fontColor=#143642;fillColor=#FAE5C7;" edge="1" parent="1" source="PqLdQz6lLYGXUWiKdrje-90" target="NdfaDMDxE9CkbkElT088-12">
          <mxGeometry relative="1" as="geometry" />
        </mxCell>
        <mxCell id="NdfaDMDxE9CkbkElT088-19" style="edgeStyle=orthogonalEdgeStyle;rounded=0;orthogonalLoop=1;jettySize=auto;html=1;entryX=0.5;entryY=0;entryDx=0;entryDy=0;strokeColor=#A8201A;fontColor=#143642;fillColor=#FAE5C7;" edge="1" parent="1" source="PqLdQz6lLYGXUWiKdrje-90" target="PqLdQz6lLYGXUWiKdrje-119">
          <mxGeometry relative="1" as="geometry">
            <Array as="points">
              <mxPoint x="-570" y="-400" />
              <mxPoint x="-907" y="-400" />
            </Array>
          </mxGeometry>
        </mxCell>
        <mxCell id="PqLdQz6lLYGXUWiKdrje-90" value="Vérifier &lt;br&gt;que la longueur des mots-clés&lt;br&gt;&amp;nbsp;est &amp;gt;= 3 " style="rhombus;whiteSpace=wrap;html=1;rounded=0;labelBackgroundColor=none;fillColor=#FAE5C7;strokeColor=#0F8B8D;fontColor=#143642;" parent="1" vertex="1">
          <mxGeometry x="-670" y="-600" width="200" height="160" as="geometry" />
        </mxCell>
        <mxCell id="NdfaDMDxE9CkbkElT088-20" style="edgeStyle=orthogonalEdgeStyle;rounded=0;orthogonalLoop=1;jettySize=auto;html=1;strokeColor=#A8201A;fontColor=#143642;fillColor=#FAE5C7;" edge="1" parent="1" source="PqLdQz6lLYGXUWiKdrje-92" target="PqLdQz6lLYGXUWiKdrje-98">
          <mxGeometry relative="1" as="geometry" />
        </mxCell>
        <mxCell id="PqLdQz6lLYGXUWiKdrje-92" value="Si Oui, &lt;br&gt;marquer la recette correspondante (isMatched =&quot;true&quot;)" style="rhombus;whiteSpace=wrap;html=1;labelBackgroundColor=none;fillColor=#FAE5C7;strokeColor=#0F8B8D;fontColor=#143642;rounded=0;" parent="1" vertex="1">
          <mxGeometry x="-670" y="-395" width="200" height="170" as="geometry" />
        </mxCell>
        <mxCell id="PqLdQz6lLYGXUWiKdrje-97" value="" style="edgeStyle=orthogonalEdgeStyle;rounded=0;orthogonalLoop=1;jettySize=auto;html=1;labelBackgroundColor=none;strokeColor=#A8201A;fontColor=default;" parent="1" source="PqLdQz6lLYGXUWiKdrje-98" edge="1">
          <mxGeometry relative="1" as="geometry">
            <mxPoint x="-570" y="-10" as="targetPoint" />
          </mxGeometry>
        </mxCell>
        <mxCell id="PqLdQz6lLYGXUWiKdrje-98" value="Ajouter la recette&lt;br&gt;à la liste des éléments filtrés&lt;br&gt;Dans le tableau&lt;br&gt;&amp;nbsp;filterRecipes[]" style="shape=parallelogram;perimeter=parallelogramPerimeter;whiteSpace=wrap;html=1;fixedSize=1;labelBackgroundColor=none;fillColor=#FAE5C7;strokeColor=#0F8B8D;fontColor=#143642;rounded=0;" parent="1" vertex="1">
          <mxGeometry x="-670" y="-140" width="200" height="80" as="geometry" />
        </mxCell>
        <mxCell id="PqLdQz6lLYGXUWiKdrje-102" value="" style="edgeStyle=orthogonalEdgeStyle;rounded=0;orthogonalLoop=1;jettySize=auto;html=1;labelBackgroundColor=none;strokeColor=#A8201A;fontColor=default;" parent="1" source="PqLdQz6lLYGXUWiKdrje-103" target="PqLdQz6lLYGXUWiKdrje-105" edge="1">
          <mxGeometry relative="1" as="geometry" />
        </mxCell>
        <mxCell id="PqLdQz6lLYGXUWiKdrje-103" value="Sinon,&lt;br&gt;Afficher les résultats de&lt;br&gt;recherche dans filtrRecipe[]&amp;nbsp;" style="shape=parallelogram;perimeter=parallelogramPerimeter;whiteSpace=wrap;html=1;fixedSize=1;labelBackgroundColor=none;fillColor=#FAE5C7;strokeColor=#0F8B8D;fontColor=#143642;rounded=0;" parent="1" vertex="1">
          <mxGeometry x="-670" y="-10" width="200" height="80" as="geometry" />
        </mxCell>
        <mxCell id="PqLdQz6lLYGXUWiKdrje-104" value="" style="edgeStyle=orthogonalEdgeStyle;rounded=0;orthogonalLoop=1;jettySize=auto;html=1;labelBackgroundColor=none;strokeColor=#A8201A;fontColor=default;" parent="1" source="PqLdQz6lLYGXUWiKdrje-105" target="PqLdQz6lLYGXUWiKdrje-106" edge="1">
          <mxGeometry relative="1" as="geometry" />
        </mxCell>
        <mxCell id="PqLdQz6lLYGXUWiKdrje-105" value="Mettre à jour l&#39;affichage des éléments" style="shape=parallelogram;perimeter=parallelogramPerimeter;whiteSpace=wrap;html=1;fixedSize=1;labelBackgroundColor=none;fillColor=#FAE5C7;strokeColor=#0F8B8D;fontColor=#143642;rounded=0;" parent="1" vertex="1">
          <mxGeometry x="-670" y="100" width="200" height="80" as="geometry" />
        </mxCell>
        <mxCell id="PqLdQz6lLYGXUWiKdrje-106" value="Fin de l&#39;algorithme" style="ellipse;whiteSpace=wrap;html=1;labelBackgroundColor=none;fillColor=#FAE5C7;strokeColor=#0F8B8D;fontColor=#143642;rounded=0;" parent="1" vertex="1">
          <mxGeometry x="-670" y="210" width="200" height="80" as="geometry" />
        </mxCell>
        <mxCell id="PqLdQz6lLYGXUWiKdrje-107" style="edgeStyle=orthogonalEdgeStyle;rounded=0;orthogonalLoop=1;jettySize=auto;html=1;exitX=0.5;exitY=1;exitDx=0;exitDy=0;labelBackgroundColor=none;strokeColor=#A8201A;fontColor=default;" parent="1" source="PqLdQz6lLYGXUWiKdrje-92" target="PqLdQz6lLYGXUWiKdrje-92" edge="1">
          <mxGeometry relative="1" as="geometry" />
        </mxCell>
        <mxCell id="NdfaDMDxE9CkbkElT088-3" style="edgeStyle=orthogonalEdgeStyle;rounded=0;orthogonalLoop=1;jettySize=auto;html=1;entryX=1;entryY=0.5;entryDx=0;entryDy=0;strokeColor=#A8201A;fontColor=#143642;fillColor=#FAE5C7;" edge="1" parent="1" source="PqLdQz6lLYGXUWiKdrje-114" target="PqLdQz6lLYGXUWiKdrje-92">
          <mxGeometry relative="1" as="geometry" />
        </mxCell>
        <mxCell id="PqLdQz6lLYGXUWiKdrje-114" value="Vérifier si un &lt;br&gt;des mots-clés&amp;nbsp;&lt;br&gt;correspond à une &lt;br&gt;donnée de recette" style="rhombus;whiteSpace=wrap;html=1;rounded=0;labelBackgroundColor=none;fillColor=#FAE5C7;strokeColor=#0F8B8D;fontColor=#143642;" parent="1" vertex="1">
          <mxGeometry x="-320" y="-600" width="180" height="160" as="geometry" />
        </mxCell>
        <mxCell id="NdfaDMDxE9CkbkElT088-21" style="edgeStyle=orthogonalEdgeStyle;rounded=0;orthogonalLoop=1;jettySize=auto;html=1;entryX=0.552;entryY=0.018;entryDx=0;entryDy=0;entryPerimeter=0;strokeColor=#A8201A;fontColor=#143642;fillColor=#FAE5C7;" edge="1" parent="1" source="PqLdQz6lLYGXUWiKdrje-119" target="PqLdQz6lLYGXUWiKdrje-28">
          <mxGeometry relative="1" as="geometry" />
        </mxCell>
        <mxCell id="PqLdQz6lLYGXUWiKdrje-119" value="&amp;nbsp;Si la recette&lt;br style=&quot;border-color: var(--border-color);&quot;&gt;&amp;nbsp;est &quot;non correspondante&quot;&lt;br style=&quot;border-color: var(--border-color);&quot;&gt;&amp;nbsp;(isMatched = false)" style="rhombus;whiteSpace=wrap;html=1;rounded=0;labelBackgroundColor=none;fillColor=#FAE5C7;strokeColor=#0F8B8D;fontColor=#143642;" parent="1" vertex="1">
          <mxGeometry x="-1010" y="-395" width="205" height="185" as="geometry" />
        </mxCell>
        <mxCell id="NdfaDMDxE9CkbkElT088-15" style="edgeStyle=orthogonalEdgeStyle;rounded=0;orthogonalLoop=1;jettySize=auto;html=1;entryX=0;entryY=0;entryDx=0;entryDy=0;strokeColor=#A8201A;fontColor=#143642;fillColor=#FAE5C7;" edge="1" parent="1" source="NdfaDMDxE9CkbkElT088-7" target="PqLdQz6lLYGXUWiKdrje-90">
          <mxGeometry relative="1" as="geometry" />
        </mxCell>
        <mxCell id="NdfaDMDxE9CkbkElT088-7" value="Input" style="text;html=1;align=center;verticalAlign=middle;resizable=0;points=[];autosize=1;strokeColor=none;fillColor=none;fontColor=#143642;" vertex="1" parent="1">
          <mxGeometry x="-730" y="-599" width="50" height="30" as="geometry" />
        </mxCell>
        <mxCell id="NdfaDMDxE9CkbkElT088-16" style="edgeStyle=orthogonalEdgeStyle;rounded=0;orthogonalLoop=1;jettySize=auto;html=1;entryX=1;entryY=0;entryDx=0;entryDy=0;strokeColor=#A8201A;fontColor=#143642;fillColor=#FAE5C7;" edge="1" parent="1" source="NdfaDMDxE9CkbkElT088-10" target="PqLdQz6lLYGXUWiKdrje-114">
          <mxGeometry relative="1" as="geometry" />
        </mxCell>
        <mxCell id="NdfaDMDxE9CkbkElT088-10" value="Tags" style="text;html=1;align=center;verticalAlign=middle;resizable=0;points=[];autosize=1;strokeColor=none;fillColor=none;fontColor=#143642;" vertex="1" parent="1">
          <mxGeometry x="-130" y="-599" width="50" height="30" as="geometry" />
        </mxCell>
        <mxCell id="NdfaDMDxE9CkbkElT088-12" value="Si &amp;lt;3, &lt;br&gt;la recherche &lt;br&gt;ne se lance pas" style="rhombus;whiteSpace=wrap;html=1;strokeColor=#0F8B8D;fontColor=#143642;fillColor=#FAE5C7;" vertex="1" parent="1">
          <mxGeometry x="-980" y="-600" width="170" height="160" as="geometry" />
        </mxCell>
        <mxCell id="NdfaDMDxE9CkbkElT088-22" value="Affichage message d&#39;erreur" style="shape=parallelogram;perimeter=parallelogramPerimeter;whiteSpace=wrap;html=1;fixedSize=1;labelBackgroundColor=none;fillColor=#FAE5C7;strokeColor=#0F8B8D;fontColor=#143642;rounded=0;" vertex="1" parent="1">
          <mxGeometry x="-1035" y="20" width="230" height="80" as="geometry" />
        </mxCell>
      </root>
    </mxGraphModel>
  </diagram>
</mxfile>
